<svg id="Capa_1" enable-background="new 0 0 512 512" height="512" viewBox="0 0 512 512" width="512" xmlns="http://www.w3.org/2000/svg"><g><path d="m344.583 211.235-132.061-126.747v126.747h-29.255l-76.943 45.885-106.324-90.236v50.833l26.375 94.539-26.375 60.659v44.042l111.944-67.479 73.24 22.107h88.155l81.418 55.928h34.403v-55.928h22.527l98.916-120.037 1.397-40.313zm-102.092-56.445 58.811 56.445h-58.811zm-70.079 181.635-93.324-28.169 93.324-55.654zm-93.289-63.083-27.857 16.612-14.714-52.742zm-40.168 85.14 11.929-27.435 22.378 6.755zm163.426-16.866v-100.412h112.167l-49.103 100.412zm156.809 52.583-32.922-22.615h32.922zm38.358-52.583h-98.743l49.103-100.412h132.385z"/></g></svg>