<svg id="Capa_1" enable-background="new 0 0 512 512" height="512" viewBox="0 0 512 512" width="512" xmlns="http://www.w3.org/2000/svg"><g><path d="m489.146 177.124v-177.07h-64.068l-50.807 72.807h-236.542l-50.807-72.807h-64.068v177.31c-5.77 5.91-22.854 23.079-22.854 23.079v187.877l123.585 123.626h268.982l119.433-123.781v-187.722s-17.161-17.336-22.854-23.319zm-48.42-147.07h18.42v114.355c-2.132-2.39-35.747-40.167-55.897-60.65zm-387.872 0h18.42l39.116 56.053c-19.064 19.279-54.623 56.913-57.536 59.99zm80.654 449.385 59.844-59.844 62.648 62.351h-119.985zm88.278-73.836h68.428l-34.214 34.214zm34.214 76.343 62.648-62.351 61.754 61.754-.577.598h-123.825zm226-105.894-80.764 83.705-84.153-84.153h-122.166l-82.619 82.619-82.298-82.327v-163.039c21.177-21.295 85.134-88.987 106.025-109.997h243.933c20.62 20.855 80.834 88.541 102.042 109.984z"/><path d="m189.135 254.444h30v51.535h-30z"/><path d="m292.865 254.444h30v51.535h-30z"/></g></svg>