<svg id="Capa_1" enable-background="new 0 0 512 512" height="512" viewBox="0 0 512 512" width="512" xmlns="http://www.w3.org/2000/svg"><g><path d="m384.418 58.673h-256.836l-127.582 127.582v155.753l108.165 111.318h293.815l110.02-111.241v-155.83zm-1.76 40.666 88.675 88.676h-88.675zm-253.316.001v88.676h-88.675zm13.537 323.987 21.963-34.662 22.515 34.662zm80.25 0-40.623-62.541 40.7-63.94h65.815l40.389 64.077-40.313 62.403h-65.968zm123.884-34.366 21.576 34.366h-43.776zm51.348 25.363-92.851-147.478h-98.743l-94.082 148.083-82.685-85.096v-111.817h129.342v-129.343h193.316v129.342h129.342v111.741z"/><path d="m189.135 176.781h30v40h-30z"/><path d="m292.865 176.781h30v40h-30z"/></g></svg>