<svg id="Capa_1" enable-background="new 0 0 512 512" height="512" viewBox="0 0 512 512" width="512" xmlns="http://www.w3.org/2000/svg"><g><path d="m402.073 100.312-66.791 45.684v-72.137h-32.826l-45.787 38.927-45.787-38.927h-32.826v73.053l-68.13-46.6-109.926-26.046v86.198l43.166 111.458 212.124 166.219 213.602-166.246 43.108-114.824v-82.805zm-289.342 38.264 57.847 39.567-87.18 50.938zm143.269 12.583 33.823 27.94-34.387 28.42-33.419-28.287zm32.46 67.986-32.46 134.921-32.254-134.066 31.46 26.628zm-99.819-16.81 43.126 179.26-149.471-117.124zm134.719.001 106.278 62.096-149.144 116.077zm18.061-24.193 58.954-40.324 29.894 92.237zm-36.139-67.31v42.125l-25.13-20.759zm-72.755 20.805-24.47 20.214v-41.018zm-202.527-19.433 55.482 13.146-30.484 94.057-24.998-64.55zm452 39.419-24.48 65.205-29.745-91.777 54.225-12.847z"/></g></svg>