<svg id="Capa_1" enable-background="new 0 0 512 512" height="512" viewBox="0 0 512 512" width="512" xmlns="http://www.w3.org/2000/svg"><g><path d="m512 180.939-27.026-27.026 24.035-65.103-61.259-61.258-69.904 25.806h-243.692l-69.904-25.806-61.259 61.258 24.035 65.103-27.026 27.026v187.242l160.541 116.267h191.229l160.23-116.267zm-37.788-84.498-12.594 34.116-55.615-55.615 34.116-12.594zm-436.424 0 34.093-34.093 34.116 12.594-55.615 55.615zm185.119 208.539h66.186v24.678h-66.186zm96.186 54.677v-54.677h39.36l51.256 85.463h-307.36l51.477-85.463h39.081v54.678h126.186zm23.033 94.791h-171.966l-47.576-34.005h266.958zm139.874-101.419-41.426 30.548-65.131-108.597h-238.568l-65.423 108.616-41.452-30.567v-159.663l110.008-110.008h231.984l110.008 110.008z"/><path d="m189.136 180.128h30v51.536h-30z"/><path d="m292.865 180.128h30v51.536h-30z"/></g></svg>