<svg id="Capa_1" enable-background="new 0 0 512 512" height="512" viewBox="0 0 512 512" width="512" xmlns="http://www.w3.org/2000/svg"><g><path d="m390.717 261.871v-177.34l-84.531-84.531h-100.305l-84.531 84.531v177.34l-120.364 120.362 130.588 129.767h250.428l129.012-129.833zm78.149 120.362-78.15 78.648v-156.797zm-317.666-107.998 30.332-30.332 74.502 74.502 74.502-74.502 30.332 30.331v207.916h-209.668zm52.639-50.238h104.389l-52.194 52.194zm-52.639-127.103 67.044-67.044h75.578l67.044 67.044v135.127l-37.874-37.874h-133.92l-37.872 37.874zm-29.85 207.191v155.674l-78.083-77.592z"/><path d="m189.504 108.839h29.85v51.277h-29.85z"/><path d="m292.714 108.839h29.85v51.277h-29.85z"/></g></svg>