<svg id="Capa_1" enable-background="new 0 0 512 512" height="512" viewBox="0 0 512 512" width="512" xmlns="http://www.w3.org/2000/svg"><g><path d="m512 91.262-65.511-76.661-137.395 54.042v-16.354l-34.805-34.806h-36.577l-34.805 34.806v16.211l-137.031-53.899-65.876 76.661v113.691l111.195 45.63-90.724 37.324-20.471 122.57 105.896 86.922 103.851-124.023 30.873 96.148h29.06l33.487-96.696 104.31 124.571 104.523-86.922-19.099-122.569-91.335-37.575 110.434-45.379zm-271 176.104-130.577-203.007 130.577 51.361zm160.942-203.007-130.577 203.007v-151.646zm-169.036.355 17.232-17.231h11.724l17.232 17.231v15.729l-22.911 9.012-23.276-9.155v-15.586zm-202.219 37.579 38.981-45.841 126.337 196.416-165.318-68.012zm71.23 353.129-69.966-57.117 15.279-88.966 103.441-42.556 81.276 33.352zm153.759-37.136-23.154-72.109 24.164-28.858 24.021 28.687zm210.466-108.947 15.28 88.966-69.966 57.117-130.302-155.611 80.963-33.268zm15.537-124.483-165.318 68.012 126.337-196.416 38.981 45.841z"/></g></svg>