<svg id="Capa_1" enable-background="new 0 0 512 512" height="512" viewBox="0 0 512 512" width="512" xmlns="http://www.w3.org/2000/svg"><g><path d="m403.381 348.691-102.764 102.764v-134.313h25.606l88.219-88.22v-228.922h-37.025l-54.859 54.975-54.339-54.975h-24.438l-54.339 54.975-54.859-54.975h-37.025v228.922l88.219 88.22h25.223v133.931l-102.38-102.382h-31.039v163.309h356.838v-163.309zm-147.381-317.797 45.313 45.372-45.313 45.408-45.312-45.408zm-128.442 185.602v-180.839l107.229 107.229-90.419 90.419zm38.023 38.024 218.861-218.863v180.839l-70.645 70.646h-115.594zm75.419 62.622h29.617v164.968h-29.617v-1.037zm-133.419 164.967v-92.03l92.03 92.03zm296.838 0h-92.03l92.03-92.03z"/></g></svg>