<svg id="Capa_1" enable-background="new 0 0 512 512" height="512" viewBox="0 0 512 512" width="512" xmlns="http://www.w3.org/2000/svg"><g><path d="m452.281 288.982 49.527-49.051v-32.791l-57.992-.205v-206.935h-443.816v299.146h355.148v44.547l-147.167 147.167 21.14 21.14h132.007l62.41-62.41 61.29 62.41h27.172v-163.298zm9.853-52.118-76.985 76.381v-76.381zm-432.134 32.282v-239.146h383.815v176.829l-58.667-.207v62.524zm262.223 179.899 32.556 32.955h-65.511zm65.658 23.776-44.445-44.989 44.599-44.598 44.444 44.988zm21.367-110.801 51.822-51.822 44.717 44.718-52.094 52.094zm102.752 104.285-37.248-37.929 37.248-37.248z"/><path d="m172.763 222.753 127.924-73.289-127.924-73.289zm30-94.816 37.574 21.527-37.574 21.527z"/></g></svg>