<svg id="Capa_1" enable-background="new 0 0 512 512" height="512" viewBox="0 0 512 512" width="512" xmlns="http://www.w3.org/2000/svg"><g><path d="m327.272 189.995 36.726-121.609-50.784-68.386h-19.807l-37.415 37.415-37.415-37.415h-19.807l-50.784 68.386 36.726 121.609-50.627 125.448 108.881 196.557h24.85l110.1-196.516zm-115.493-14.304-21.07-69.769 50.259 32.266v37.503zm59.236-37.504 50.259-32.266-21.07 69.769h-29.189zm30.388-103.692 24.378 32.827-54.766 35.159v-37.598zm-90.823 0 30.388 30.388v37.598l-54.766-35.159zm44.889 438.068-88.164-159.155 43.454-107.671h90.463l43.438 107.63z"/></g></svg>