<svg id="Capa_1" enable-background="new 0 0 512 512" height="512" viewBox="0 0 512 512" width="512" xmlns="http://www.w3.org/2000/svg"><g><path d="m512 0h-95.247l-49.991 58.558v181.701h-211.279l-155.483 179.399v92.342l152.348-87.116v52.614h35.007l60.89-60.577h73.297v60.577h34.836l69.545-66.539 77.024-154.052-42.632-161.734 51.685-24.435zm-115.238 69.622 19.708-23.086 51.064 193.723h-70.772zm-35.385 200.637h101.353l-49.397 98.793zm-331.377 160.688 71.104-82.152-29.871 87.876-41.233 23.565zm80.558-16.75 41.789-122.937v99.055zm71.79 25.964v-122.407l41.381 81.238zm68.899-53.241-59.425-116.661h129.719v116.661zm100.294 53.684v-124.596l43.591 82.888zm130.459-388.866-29.462 13.928-9.402-35.666h38.864z"/></g></svg>