<svg id="Capa_1" enable-background="new 0 0 512 512" height="512" viewBox="0 0 512 512" width="512" xmlns="http://www.w3.org/2000/svg"><g><path d="m344.078 124.67h-176.156l-131.348 131.348 131.348 131.348h176.156l131.348-131.348zm-88.389 89.913-60.648-59.915h119.839zm58.202 142.785h-117.838l59.636-58.915zm-57.95-100.85 88.486-89.075 88.575 88.575-89.072 89.072zm-89.504-87.939 89.503 87.939-89 87.443-87.943-87.943z"/><path d="m200.932 463.795 21.211 21.212 18.858-18.858v45.851h29.998v-45.851l18.858 18.858 21.211-21.212-55.068-55.068z"/><path d="m311.051 48.375-21.16-21.264-18.904 18.813.112-45.852-29.998-.072-.112 45.85-18.811-18.904-21.263 21.161 54.933 55.202z"/></g></svg>