<svg id="Capa_1" enable-background="new 0 0 512 512" height="512" viewBox="0 0 512 512" width="512" xmlns="http://www.w3.org/2000/svg"><g><path d="m64.282 128.565v383.435h383.436v-383.435zm30.027 30.027h58.263v43.413h30.027v-43.413h58.387v323.38h-58.387v-43.413h-30.027v43.413h-58.263zm323.382 323.381h-58.312v-43.413h-30.027v43.413h-58.338v-323.38h58.338v43.413h30.027v-43.413h58.312z"/><path d="m152.572 241.905h30.027v58.427h-30.027z"/><path d="m152.572 340.232h30.027v58.428h-30.027z"/><path d="m329.352 241.905h30.027v58.427h-30.027z"/><path d="m329.352 340.232h30.027v58.428h-30.027z"/><path d="m182.318 62.941h-28.163v30.027h77.955v-77.954h-30.027v25.285c-31.773-26.104-71.252-40.299-112.912-40.299h-24.126v30.027h24.125c34.321 0 66.856 11.593 93.148 32.914z"/><path d="m354.604 62.941h-28.164c26.293-21.321 58.828-32.914 93.147-32.914h24.126v-30.027h-24.126c-41.659 0-81.137 14.195-112.911 40.298v-25.284h-30.026v77.955h77.955v-30.028z"/></g></svg>