<svg id="Capa_1" enable-background="new 0 0 512 512" height="512" viewBox="0 0 512 512" width="512" xmlns="http://www.w3.org/2000/svg"><g><path d="m502.468 181.372-180.194-181.372h-199.717l79.595 83.261-93.678 80.678-66.555-74.83h-32.387v333.783h32.387l66.555-74.83 93.678 80.678-79.595 83.26h199.717l180.194-181.372zm-29.876 59.69h-407.886l164.663-141.812h148.727l94.497 94.497v47.315zm-123.966-171.687h-35.415v-35.99zm-65.291-39.5v39.499h-53.127l-37.76-39.499zm-197.501 153.562-46.426 39.984v-92.183zm-46.426 197.325v-92.183l46.426 39.984zm190.8 61.863h53.127v39.499h-90.888zm83.003 35.99v-35.99h35.415zm64.885-65.865h-148.727l-164.663-141.812h407.887v47.315z"/></g></svg>