<svg id="Capa_1" enable-background="new 0 0 512 512" height="512" viewBox="0 0 512 512" width="512" xmlns="http://www.w3.org/2000/svg"><g><path d="m507.882 139.876-92.295-139.876h-37.296v127.423h-15.877l-35.768-51.613h-56.4v51.613h-30.046v-51.613h-56.4l-35.768 51.613h-14.465v-127.423h-37.157l-92.292 139.655 22.606 91.582-22.349 27.395v252.548h39.502l49.153-65.98 15.71 30.921h294.069l16.042-31.911 54.193 67.79h34.616v-253.375l-24.433-29.898zm-82.89 17.592h46.829l-11.871 42.777zm38.677-30.045h-55.333v-83.859zm-163.378-21.568h10.622l14.946 21.568h-25.569v-21.568zm-100.758 0h10.622v21.568h-25.568zm-96.011-62.123v83.691h-55.308zm-64.061 113.736h47.442l-36.421 44.646zm-5.041 316.114v-143.739l43.419 85.457zm92.757-27.506-90.935-178.977 89.434-109.631h260.514l88.649 108.474-90.553 180.134zm306.525-31.407 43.914-87.354v142.286z"/></g></svg>