<svg id="Capa_1" enable-background="new 0 0 512 512" height="512" viewBox="0 0 512 512" width="512" xmlns="http://www.w3.org/2000/svg"><g><path d="m329.781 75.833h-147.562l-182.219 66.841v240.763h31.775l40.379-69.345 69.14 122.074h228.683l69.376-122.489 42.533 69.76h30.114v-240.763zm-299.869 251.362v-163.632l121.162-44.444zm172.29 47.153h106.869l31.908 31.908h-170.685zm29.911-29.912 23.523-23.523 23.523 23.523zm131.544 42.197-108.021-108.022-108.02 108.022-58.036-102.467 103.894-178.421h119.102l108.956 178.704zm118.431-60.323-127.813-209.632 127.813 46.884z"/><path d="m188.968 208.929h29.912v51.383h-29.912z"/><path d="m292.393 208.929h29.912v51.383h-29.912z"/></g></svg>