<svg id="Capa_1" enable-background="new 0 0 512 512" height="512" viewBox="0 0 512 512" width="512" xmlns="http://www.w3.org/2000/svg"><g><path d="m512 150.01-150.01-150.01h-211.98l-150.01 150.01v207.676h160.155l13.367 39.903h22.037l44.263 114.411h32.355l44.263-114.411h26.26l13.367-39.903h155.933zm-30 159.914-88.092-65.199 42.753-127.628 45.339 45.34zm-403.498-195.99 43.778 130.689-92.28 68.299v-150.485zm-18.021 213.752 71.818-53.154 17.806 53.154zm195.519 142.986-28.275-73.083h56.549zm65.111-103.083h-126l-92.909-277.355 60.234-60.234h187.129l63.396 63.397zm62.778-92.955 71.68 53.052h-89.451z"/><path d="m189.136 178.829h30v51.535h-30z"/><path d="m292.865 178.829h30v51.535h-30z"/></g></svg>