<svg id="Capa_1" enable-background="new 0 0 512 512" height="512" viewBox="0 0 512 512" width="512" xmlns="http://www.w3.org/2000/svg"><g><path d="m409.191 200.149v-200.149h-29.123l-109.096 109.097v79.041h-29.97v-79.041l-109.096-109.097h-29.123v200.149l-63.659 154.058 108.185 157.793h215.816l109.75-157.731zm-29.969-33.591-61.664-61.663 61.664-61.664zm-78.281-35.898 57.478 57.478h-57.478zm-89.908 57.478h-57.089l57.089-57.089zm-16.423-83.049-61.858 61.858v-123.716zm-66.821 113.019h256.396l54.742 132.479-76.931 110.564-106.009-106.009-106.717 106.718-76.248-111.211zm74.66 232.956h107.076l30.967 30.967h-169.009zm29.97-29.97 23.568-23.568 23.568 23.568z"/><path d="m189.19 285.324h29.97v51.483h-29.97z"/><path d="m292.815 285.324h29.97v51.483h-29.97z"/></g></svg>