<svg id="Capa_1" enable-background="new 0 0 512 512" height="512" viewBox="0 0 512 512" width="512" xmlns="http://www.w3.org/2000/svg"><g><path d="m512 304.008-197.542-286.239h-116.83l-197.628 286.243 56.934 128.959 103.019-34.83 96.089 96.089 97.062-97.062 101.981 35.971zm-298.586-256.158h85.254l42.705 61.88h-170.683zm-10.97 276.484h110.41l14.687 40.225h-139.103zm10.474-30.081 14.006-40.226h60.259l14.687 40.226zm24.48-70.308 18.941-54.398 19.862 54.398zm-203.083 83.31 115.607-167.443h84.917l-79.424 228.11-82.066 27.745zm164.679 87.386h114.097l-57.049 57.049zm161.823-26.65-83.312-228.178h84.629l115.559 167.447-38.891 88.24z"/></g></svg>