<svg id="Capa_1" enable-background="new 0 0 512 512" height="512" viewBox="0 0 512 512" width="512" xmlns="http://www.w3.org/2000/svg"><g><path d="m451.923 238.535-56.924-65.762-119.448-32.832-54.035-46.89h-33.104v81.254l-109.646 51.286-43.13-58.616h-35.636v229.698h35.377l47.418-60.85h145.141v83.126h37.021l74.734-83.126h172.309v-70.64zm-233.51-108.457 22.609 19.62-22.609 10.575zm-178.487 146.798 105.357-49.279 60.122 78.226h-138.782zm11.13-38.324-21.056 9.848v-38.465zm-21.056 116.215v-44.402l18.755 20.335zm204.484-60.339-61.369-79.848 96.529-45.15 94.048 25.851-53.158 89.462-60.946-46.633zm23.451 87.459v-59.087l9.019-33.628 44.041 33.697zm169.842-76.064h-93.453l54.583-94.25 38.87 44.905zm54.223 0h-24.223v-31.872l24.223 10.744z"/></g></svg>