<svg id="Capa_1" enable-background="new 0 0 512 512" height="512" viewBox="0 0 512 512" width="512" xmlns="http://www.w3.org/2000/svg"><g><path d="m512 257.992v-235.955l-20.423-20.423-115.985 115.986-117.601-117.6h-235.953l-20.425 20.422 115.987 115.986-117.6 117.6v235.955l20.423 20.423 115.985-115.986 117.599 117.6h235.956l20.423-20.423-115.986-115.985zm-55.434-16.992h-164.353l82.177-82.177zm-185.566-21.213v-164.353l82.177 82.177zm-30 0-82.177-82.177 82.177-82.176zm-103.39-60.964 82.177 82.177h-164.353zm82.177 112.177-82.177 82.177-82.176-82.177zm21.213 21.213v164.353l-82.177-82.177zm30 0 82.177 82.177-82.177 82.176zm103.39 60.964-82.177-82.177h164.354zm107.61-299.56v170.391l-85.195-85.195zm-428.382-23.617h170.39l-85.195 85.195zm-23.618 428.383v-170.391l85.195 85.196zm428.383 23.617h-170.391l85.195-85.195z"/></g></svg>