<svg id="Capa_1" enable-background="new 0 0 512 512" height="512" viewBox="0 0 512 512" width="512" xmlns="http://www.w3.org/2000/svg"><g><path d="m483.235 200.488 15.08-28.072-130.023-56.27-90.311-104.004-21.494 22.885-23.034-22.32-89.821 103.44-129.889 56.211 14.747 28.065-28.49 14.068 68.33 114.383 15.757 141.592 29.693.604 8.439 28.32 133.743-36.775 135.443 37.242 5.279-30.069 31.044 1.657 15.866-142.572 68.406-114.508zm-30.189-5.685-157.882 48.565 69.294-96.971 92.976 40.237zm-112.252-65.659-69.622 97.43.421-164.853 5.536-5.895zm-105.509-73.883 7.021 6.803-.431 168.762-72.004-100.233zm-89.573 91.895 68.562 95.443-155.71-47.9-4.208-8.008zm-104.303 79.549 8.288-4.093 156.468 48.133-116.956 35.976zm57.016 107.82 122.542-37.694-103.628 145.02-6.986-.142zm42.415 124.807 100.812-141.078-.301 118.008-99.253 27.291zm129.796-23.054.293-114.812 98.089 136.546-.891 5.073zm121.665 3.95-103.487-144.059 124.685 38.356-11.818 106.204zm30.414-133.508-116.946-35.975 156.142-48.03 8.529 4.115z"/></g></svg>