<svg id="Capa_1" enable-background="new 0 0 512 512" height="512" viewBox="0 0 512 512" width="512" xmlns="http://www.w3.org/2000/svg"><g><path d="m512 148.966-121.788-102.84-42.798 40.434h-30.368v-46.742l-39.579-39.818h-43.418l-39.579 39.818v46.742h-29.883l-42.799-40.434-121.788 102.84v65.163l81.697-9.253-37.441 64.85 39.101 67.724-40.068 44.992v129.558l95.827-77.974 10.892 18.866h50.425l57.561 59.108 57.373-59.108h46.143l10.892-18.866 95.826 77.974v-129.558l-40.068-44.992 39.101-67.724-37.475-64.908 82.214 9.311zm-287.53-96.722 22.005-22.005h18.565l22.005 22.005v33.433h-62.575zm-194.47 128.295v-17.642l90.667-76.561 19.068 18.014-39.388 68.221zm43.288 268.373v-55.048l25.868-29.048 24.766 42.895zm5.608-179.186 88.431-153.166h73.431v306.332h-73.431zm179.062 199.237-15.651-16.071h31.251zm180.27-75.099v55.048l-50.634-41.2 24.766-42.895zm-94.04 29.028h-73.431v-306.332h73.431l88.431 153.166zm137.812-242.353-70.865-8.025-39.183-67.866 19.382-18.311 90.666 76.56z"/></g></svg>