<svg id="Capa_1" enable-background="new 0 0 512 512" height="512" viewBox="0 0 512 512" width="512" xmlns="http://www.w3.org/2000/svg"><g><path d="m473.406 168.866-177.445-168.866h-78.775l-178.592 168.84v75.678l119.012 78.409-15.197 82.869 46.507 106.204h135.21l46.505-106.205-15.309-83.48 118.084-77.797zm-138.078-89.901 30.756 29.249c-3.168 9.121-11.845 15.689-22.031 15.689-12.859 0-23.319-10.461-23.319-23.319 0-9.773 6.047-18.157 14.594-21.619zm-144.062 21.619c0 12.859-10.46 23.319-23.319 23.319-10.057 0-18.647-6.399-21.913-15.339l31.116-29.417c8.361 3.595 14.116 11.933 14.116 21.437zm-67.823 29.337c9.552 14.442 25.93 23.992 44.504 23.992 29.406 0 53.329-23.923 53.329-53.329 0-17.352-8.406-32.999-21.538-42.791l29.37-27.766 54.844.078 28.771 27.362c-13.319 9.705-21.999 25.412-21.999 43.117 0 29.406 23.923 53.329 53.329 53.329 18.662 0 35.105-9.643 44.637-24.2l54.706 52.026v39.69h-135.184c.73-3.532 1.117-7.153 1.117-10.82 0-29.406-23.923-53.33-53.329-53.33s-53.329 23.924-53.329 53.33c0 3.667.387 7.288 1.117 10.82h-135.184v-39.664zm111.915 91.509c-1.737-3.31-2.677-7.007-2.677-10.82 0-12.859 10.461-23.32 23.319-23.32s23.319 10.461 23.319 23.32c0 3.812-.94 7.509-2.677 10.82zm-131.711 30.009h67.069l-7.23 39.423zm137.869 230.551h-32.98l-34.952-79.818 27.642-150.733h40.29zm62.99 0h-32.98v-230.551h40.29l27.641 150.733zm37.819-230.551h66.027l-58.91 38.811z"/></g></svg>