<svg id="Capa_1" enable-background="new 0 0 512 512" height="512" viewBox="0 0 512 512" width="512" xmlns="http://www.w3.org/2000/svg"><g><path d="m387.336 409.879 14.732-120.395v-45.859l-41.77-74.205 52.227-68.881-143.903-100.539h-25.47l-143.909 100.543 52.342 68.963-41.757 74.086v45.865l14.828 120.437-55.936 102.066h48.24l72.568-43.066v-116.784l9.425-34.552 41.478 83.911-29.387 61.891 30.749 48.64h30.662l30.733-48.68-29.502-61.945 39.519-83.23 9.265 33.967v116.718l71.634 43.13h49.175zm-35.859-65.432-11.159-40.91h29.699l-7.424 61.194zm-7.248-203.488-48.054-85.113 73.6 51.421zm-202.223-33.695 73.672-51.472-48.043 85.238zm113.892-61.735 116.252 205.902-.122 22.105h-232.2v-22.073zm-114.11 258.008h29.895l-11.159 40.908-11.186 20.412zm17.741 148.275-35.028 20.789 35.028-63.917zm97.588 28.287-11.884-18.799 11.865-24.987 11.896 24.977zm-.289-113.16-31.34-63.402h61.445zm95.643 84.936v-43.191l35.327 64.461z"/></g></svg>