<svg id="Capa_1" enable-background="new 0 0 512 512" height="512" viewBox="0 0 512 512" width="512" xmlns="http://www.w3.org/2000/svg"><g><path d="m402.266 89.234-81.209 67.074-158.39-126.922h-162.559v43.4l142.29 118.88v126.979l-142.398 131.334v32.635h172.398v-96.057l.2-.251h160.848l84.725-186.654h21.349l72.48-72.479v-37.939zm.749 38.291v42.127h-51.005zm-372.156-68.139h111.539v93.189zm141.539 16.242 127.9 102.491-127.9 160.331v-47.474zm-30 376.986h-101.005l101.006-93.158v93.158zm160.427-229.557v133.249h-106.295zm30 92.036v-115.441h52.4zm100.19-151.361v-44.498h44.498z"/></g></svg>