<svg id="Capa_1" enable-background="new 0 0 512 512" height="512" viewBox="0 0 512 512" width="512" xmlns="http://www.w3.org/2000/svg"><g><path d="m30 208.783c0-72.757 54.956-132.909 125.536-141.153l-18.05 18.051 21.214 21.213 53.446-53.447-53.447-53.447-21.213 21.213 16.409 16.409c-86.371 9.135-153.895 82.408-153.895 171.161v15.315h30z"/><path d="m358.105 37.622 16.409-16.409-21.213-21.213-53.446 53.446 53.446 53.447 21.213-21.213-18.05-18.051c70.58 8.245 125.536 68.397 125.536 141.154v15.315h30v-15.315c0-88.753-67.523-162.026-153.895-171.161z"/><path d="m29.175 285.176 226.825 226.824 226.824-226.824-226.824-226.824zm101.931-59.505 8.26 20.869 27.895-11.041-13.04-32.943 86.779-86.779v338.797l-169.398-169.398zm139.894 228.903v-338.797l85.945 85.945-13.37 33.777 27.895 11.041 8.591-21.702 60.338 60.338z"/><path d="m314.126 277.049h46.395v30h-46.395z" transform="matrix(.368 -.93 .93 .368 -58.373 498.214)"/><path d="m285.389 349.647h46.395v30h-46.395z" transform="matrix(.368 -.93 .93 .368 -144.037 517.374)"/><path d="m158.513 268.851h30v46.395h-30z" transform="matrix(.93 -.368 .368 .93 -95.305 84.356)"/><path d="m187.249 341.45h30v46.395h-30z" transform="matrix(.93 -.368 .368 .93 -120.007 100.028)"/></g></svg>