<svg id="Capa_1" enable-background="new 0 0 512 512" height="512" viewBox="0 0 512 512" width="512" xmlns="http://www.w3.org/2000/svg"><g><path d="m0 200.727 256 256.001 256-256.001zm241.009 29.983v31.442h29.983v-31.442h168.622l-168.621 168.623v-27.332h-29.983v27.333l-168.624-168.624z"/><path d="m241.009 293.86h29.983v46.432h-29.983z"/><path d="m155.758 126.853c26.824-26.824 62.489-41.597 100.424-41.597 32.354 0 63.052 10.754 88.027 30.557h-25.521v29.983h75.531v-75.532h-29.983v23.173c-30.504-24.723-68.244-38.165-108.054-38.165-45.944 0-89.138 17.891-121.625 50.379l-10.821 10.821 21.201 21.201z"/></g></svg>