<svg id="Capa_1" enable-background="new 0 0 512 512" height="512" viewBox="0 0 512 512" width="512" xmlns="http://www.w3.org/2000/svg"><g><path d="m64.282 128.564v383.436h383.437v-383.436zm353.409 353.409h-146.677v-43.413h-30.027v43.413h-146.678v-323.381h146.677v43.414h30.027v-43.414h146.677v323.381z"/><path d="m240.986 241.905h30.027v58.427h-30.027z"/><path d="m240.986 340.233h30.027v58.427h-30.027z"/><path d="m155.611 71.684c51.482-51.482 132.928-55.161 188.706-11.055h-25.538v30.027h75.642v-75.642h-30.027v23.206c-30.549-24.759-68.344-38.22-108.212-38.22-46.012 0-89.269 17.917-121.803 50.452l-10.837 10.838 21.232 21.232z"/></g></svg>