<svg id="Capa_1" enable-background="new 0 0 512 512" height="512" viewBox="0 0 512 512" width="512" xmlns="http://www.w3.org/2000/svg"><g><path d="m256 71.988-220.006 220.006 220.006 220.006 220.006-220.006zm-15.007 57.455v29.496h30.015v-29.496l162.552 162.551-162.553 162.551v-29.496h-30.015v29.496l-162.551-162.551z"/><path d="m240.993 203.824h30.015v65.728h-30.015z"/><path d="m240.993 314.437h30.015v65.728h-30.015z"/><path d="m155.653 71.654c51.46-51.46 132.873-55.138 188.627-11.051h-25.528v30.015h75.611v-75.611h-30.015v23.196c-30.536-24.747-68.315-38.203-108.166-38.203-45.992 0-89.231 17.91-121.752 50.431l-10.833 10.833 21.223 21.223z"/></g></svg>