<svg id="Capa_1" enable-background="new 0 0 512 512" height="512" viewBox="0 0 512 512" width="512" xmlns="http://www.w3.org/2000/svg"><g><path d="m0 0v512h251.431l260.569-260.569v-251.431zm60.653 240.329 178.969-178.969v26.679h30v-29.435l181.725 181.725h-181.725v-34.137h-30v34.137h-33.073v30h33.073v180.311l-180.311-180.311h29.084v-30zm208.969 30h181.053l-181.053 181.053zm212.378-41.773-198.556-198.556h198.556zm-253.444-198.556-198.556 198.556v-198.556zm-198.556 253.444 198.556 198.556h-198.556z"/><path d="m239.622 122.026h30v50.18h-30z"/><path d="m122.382 240.329h50.18v30h-50.18z"/></g></svg>