<svg id="Capa_1" enable-background="new 0 0 512 512" height="512" viewBox="0 0 512 512" width="512" xmlns="http://www.w3.org/2000/svg"><g><path d="m457.864 394.829-75.837-153.381 60.258-60.258v-176.657l-82.822 90.825-103.463-95.358-103.463 95.358-82.822-90.826v176.658l60.258 60.258-75.837 153.381 25.393 17.116-20.671 100.055 129.746-43.974v-72.988h134.792v73.057l131.638 43.725-20.869-101.017zm-186.869-310.275 138.688 280.494h-138.688zm-29.99 280.494h-138.688l138.688-280.494zm64.254-278.862 98.673 90.943-35.938 35.938zm107.035-4.255v62.119l-30.778-28.367zm-281.81 33.752-30.778 28.367v-62.119zm-22.416 61.446 98.673-90.943-62.735 126.881zm-1.658 252.935 33.715 22.726-41.303 13.998zm52.203-.98-50.509-34.045h50.509zm245.283-34.045-50.509 34.045v-34.045zm11.248 71.93-43.077-14.308 35.217-23.738z"/></g></svg>